# xmcd
#
# Track frame offsets:
#	150
#	15765
#	34271
#	50622
#	65441
#	84746
#	96982
#	115809
#	127955
#	153194
#	167848
#	175737
#	189004
#	209545
#	223598
#
# Disc length: 3245 seconds
#
# Revision: 1
# Processed by: cddbd v1.5.2PL0 Copyright (c) Steve Scherf et al.
# Submitted via: audiograbber 1.83.01
#
DISCID=c20cab0f
DTITLE=Nite Sky - Nite Sky 803
DYEAR=2008
DGENRE=Country
TTITLE0=Everybody Loves A Cowboy  - Tommy Young
TTITLE1=Mockingbird  - Jasmun Basilone and Charley Austin
TTITLE2=Every Little Tic And Toe - Andrew Dean and The Farm Machine
TTITLE3=Samba Havaiana  - Ambrogio Gaigher
TTITLE4=Wild Horse  - Gina Michaels
TTITLE5=Cowboy You Can´t Dance  - Nieil Andrews
TTITLE6=Just A Little Bit  - Slick Nickel
TTITLE7=Raising The Price Of Gas - Joymarie Goodman and Bill Marks
TTITLE8=Zach´s Song - Jason Hunkapiller
TTITLE9=Redneck Preacher Man  - Ron Thompson
TTITLE10=Black And White Rag  - Kimberly Bibb-marrs
TTITLE11=Thank You Jesus  - Ron Kammer
TTITLE12=Jesus Heard Every Word (inever Said)  - Gina Michaels
TTITLE13=Our Lord Is Able  - Ray Owens
TTITLE14=Child, Come On Home  - Risen Gospel Band
EXTD=
EXTT0=
EXTT1=
EXTT2=
EXTT3=
EXTT4=
EXTT5=
EXTT6=
EXTT7=
EXTT8=
EXTT9=
EXTT10=
EXTT11=
EXTT12=
EXTT13=
EXTT14=
PLAYORDER=
